<svg width="101" height="96" fill="none" xmlns="http://www.w3.org/2000/svg"><rect width="101" height="96" rx="2" fill="#162239"/><path d="M48.3099 48.2149L39.0375 42.8802L42.3662 40.9652L49.9742 45.3423C50.2551 45.5039 50.6012 45.5039 50.8821 45.3423L58.5806 40.9131L61.9092 42.8282L52.5464 48.2149C51.2356 48.969 49.6207 48.969 48.3099 48.2149Z" fill="white"/><path d="M58.189 36.8407L50.5046 32.4196L42.8201 36.8407V40.641L50.5581 36.1891L58.189 40.5795V36.8407Z" fill="white"/><path d="M66.1002 25.0428L66.1002 35.7121L62.7715 33.797V25.0427C62.7715 24.7196 62.5985 24.4209 62.3176 24.2593L54.6191 19.8301V16L59.3005 18.6934L63.9819 21.3867C65.2927 22.1408 66.1002 23.5345 66.1002 25.0428Z" fill="white"/><path d="M51.2757 22.2042V31.0464L58.9602 35.4675L62.2629 33.5674L54.5249 29.1155V20.3348L51.2757 22.2042Z" fill="white"/><path d="M34.9063 25.0428L34.9062 35.7121L38.2349 33.797V25.0427C38.2349 24.7196 38.4079 24.4209 38.6888 24.2593L46.3873 19.8301V16L37.0245 21.3867C35.7137 22.1408 34.9063 23.5345 34.9063 25.0428Z" fill="white"/><path d="M49.7307 22.2042V31.0464L42.0463 35.4675L38.7435 33.5674L46.4815 29.1155V20.3348L49.7307 22.2042Z" fill="white"/><path d="M28.1796 65.5354C28.1796 66.0981 28.1022 66.5518 27.9475 66.8964C27.7927 67.2294 27.5052 67.4879 27.0851 67.6716C26.665 67.8439 26.0791 67.9587 25.3273 68.0162C24.5866 68.0736 23.3354 68.1023 22.1415 68.1023H20.9086C19.8583 68.1023 19.0126 68.0679 18.3714 67.9989C17.7302 67.93 17.2327 67.7865 16.8789 67.5682C16.5251 67.35 16.2874 67.0399 16.1658 66.6379C16.0553 66.236 16 65.7077 16 65.053V64.6051H18.6036V64.9841C18.6036 65.2253 18.6257 65.4148 18.6699 65.5526C18.7141 65.6904 18.8191 65.7938 18.985 65.8627C19.1508 65.9201 19.3885 65.9603 19.698 65.9833C20.0187 65.9948 20.4498 66.0005 20.9915 66.0005H22.0751C22.7606 66.0005 23.5916 65.9948 24.0007 65.9833C24.4097 65.9603 24.7193 65.9201 24.9293 65.8627C25.1504 65.8053 25.2942 65.7191 25.3605 65.6043C25.4268 65.478 25.46 65.3171 25.46 65.1219V64.9496C25.46 64.7659 25.4324 64.6223 25.3771 64.5189C25.3329 64.4041 25.2499 64.3179 25.1283 64.2605C25.0067 64.2031 24.8409 64.1686 24.6308 64.1572C24.4318 64.1457 24.1776 64.1399 23.868 64.1399H21.4634V62.1415H23.8846C24.4153 62.1415 24.7746 62.0841 24.9625 61.9692C25.1504 61.8544 25.2444 61.6247 25.2444 61.2801V61.0906C25.2444 60.9183 25.2057 60.7748 25.1283 60.6599C25.062 60.5451 24.9238 60.4589 24.7137 60.4015C24.5147 60.3441 24.2218 60.3039 23.8348 60.2809C23.459 60.2579 22.6832 60.2465 22.0751 60.2465H20.9915C20.4498 60.2465 20.0187 60.2522 19.698 60.2637C19.3885 60.2752 19.1508 60.3154 18.985 60.3843C18.8191 60.4532 18.7141 60.5565 18.6699 60.6944C18.6257 60.8322 18.6036 61.0217 18.6036 61.2629V61.573H16.0497V61.194C16.0497 60.5393 16.105 60.011 16.2156 59.609C16.3261 59.207 16.5528 58.8969 16.8955 58.6787C17.2493 58.4605 17.7412 58.3169 18.3714 58.248C19.0126 58.1791 19.8583 58.1447 20.9086 58.1447H22.1415C23.3023 58.1447 24.5258 58.1734 25.2444 58.2308C25.9741 58.2882 26.5379 58.4088 26.9359 58.5926C27.3449 58.7649 27.6158 59.0175 27.7485 59.3506C27.8922 59.6722 27.964 60.0971 27.964 60.6255V60.8494C27.964 61.2629 27.9364 61.6017 27.8811 61.8659C27.8369 62.1185 27.7485 62.3253 27.6158 62.4861C27.4942 62.6354 27.3228 62.756 27.1017 62.8478C26.8917 62.9282 26.6263 63.0029 26.3057 63.0718V63.1235C26.6374 63.1809 26.9193 63.2498 27.1515 63.3302C27.3836 63.3991 27.5771 63.5082 27.7319 63.6575C27.8867 63.8069 27.9972 64.0021 28.0635 64.2433C28.1409 64.4845 28.1796 64.7888 28.1796 65.1564V65.5354Z" fill="white"/><path d="M38.993 67.9374H29.7485V58.2209H32.5345V65.6805H38.993V67.9374Z" fill="white"/><path d="M46.0755 68.1022C45.18 68.1022 44.6899 68.0792 44.0377 68.0333C43.3964 67.9988 42.8492 67.9242 42.3959 67.8093C41.9427 67.683 41.5723 67.5107 41.2849 67.2925C41.0085 67.0743 40.7929 66.7871 40.6381 66.4311C40.4833 66.075 40.3783 65.6386 40.323 65.1218C40.2678 64.6049 40.2401 63.9847 40.2401 63.2612V62.9855C40.2401 62.262 40.2678 61.6418 40.323 61.1249C40.3783 60.6081 40.4833 60.1717 40.6381 59.8156C40.7929 59.4481 41.0085 59.1552 41.2849 58.937C41.5723 58.7188 41.9427 58.5523 42.3959 58.4374C42.8492 58.3226 43.3964 58.2479 44.0377 58.2135C44.6899 58.1675 45.18 58.1445 46.0755 58.1445H46.4861C47.3816 58.1445 47.8662 58.1675 48.5074 58.2135C49.1597 58.2479 49.7124 58.3226 50.1657 58.4374C50.619 58.5523 50.9838 58.7188 51.2602 58.937C51.5476 59.1552 51.7687 59.4481 51.9235 59.8156C52.0783 60.1717 52.1833 60.6081 52.2386 61.1249C52.2939 61.6418 52.3215 62.262 52.3215 62.9855V63.2612C52.3215 63.9847 52.2939 64.6049 52.2386 65.1218C52.1833 65.6386 52.0783 66.0808 51.9235 66.4483C51.7687 66.8044 51.5476 67.0915 51.2602 67.3097C50.9838 67.5279 50.619 67.6945 50.1657 67.8093C49.7124 67.9242 49.1597 67.9988 48.5074 68.0333C47.8662 68.0792 47.3816 68.1022 46.4861 68.1022H46.0755ZM46.3866 65.8453C47.1937 65.8453 47.54 65.8224 47.9933 65.7764C48.4576 65.7305 48.8004 65.6214 49.0215 65.4491C49.2536 65.2653 49.3918 64.9954 49.436 64.6394C49.4913 64.2833 49.519 63.801 49.519 63.1923V63.0372C49.519 62.417 49.4913 61.9289 49.436 61.5729C49.3918 61.2053 49.2536 60.9354 49.0215 60.7632C48.8004 60.5794 48.4576 60.4645 47.9933 60.4186C47.54 60.3727 47.1937 60.3497 46.3866 60.3497H46.175C45.3569 60.3497 45.005 60.3727 44.5517 60.4186C44.0985 60.4645 43.7557 60.5794 43.5236 60.7632C43.3025 60.9354 43.1643 61.2053 43.109 61.5729C43.0648 61.9289 43.0427 62.417 43.0427 63.0372V63.1923C43.0427 63.801 43.0648 64.2833 43.109 64.6394C43.1643 64.9954 43.3025 65.2653 43.5236 65.4491C43.7557 65.6214 44.0985 65.7305 44.5517 65.7764C45.005 65.8224 45.3569 65.8453 46.175 65.8453H46.3866Z" fill="white"/><path d="M60.0139 68.1022C58.6873 68.1022 57.626 68.0505 56.83 67.9471C56.034 67.8323 55.4204 67.6026 54.9892 67.258C54.5691 66.9135 54.2927 66.4253 54.1601 65.7937C54.0274 65.1505 53.9611 64.3063 53.9611 63.2612V62.9855C53.9611 62.2849 53.9887 61.6762 54.044 61.1594C54.0993 60.6426 54.2043 60.2061 54.3591 59.8501C54.5249 59.494 54.746 59.2069 55.0224 58.9887C55.2988 58.759 55.6581 58.581 56.1003 58.4546C56.5536 58.3283 57.1008 58.2479 57.742 58.2135C58.3833 58.1675 59.1406 58.1445 60.0139 58.1445H60.7186C61.8242 58.1445 62.7197 58.1847 63.4051 58.2651C64.1016 58.3455 64.6433 58.5006 65.0303 58.7303C65.4283 58.9485 65.6991 59.2643 65.8428 59.6778C65.9866 60.0798 66.0584 60.6024 66.0584 61.2455V61.3297H63.3554C63.3554 60.9995 63.1526 60.71 62.8579 60.5909C62.6589 60.499 62.377 60.4358 62.0121 60.4014C61.6584 60.3554 61.194 60.3325 60.6192 60.3325H60.1134C59.3174 60.3325 58.6928 60.3554 58.2395 60.4014C57.7863 60.4473 57.4491 60.5622 57.228 60.7459C57.0069 60.9297 56.8687 61.2053 56.8134 61.5729C56.7581 61.9289 56.7305 62.417 56.7305 63.0372V63.2095C56.7305 63.8182 56.7581 64.3006 56.8134 64.6566C56.8687 65.0012 57.0069 65.2653 57.228 65.4491C57.4491 65.6329 57.7863 65.7477 58.2395 65.7937C58.6928 65.8396 59.3174 65.8626 60.1134 65.8626H60.6192C61.2604 65.8626 61.7689 65.8453 62.1448 65.8109C62.5317 65.7764 62.8247 65.7133 63.0237 65.6214C63.2227 65.518 63.3498 65.3859 63.4051 65.2251C63.4604 65.0644 63.488 64.8519 63.488 64.5877V64.3293H61.2073L61.2239 62.4343H66.1579V64.6049C66.1579 65.317 66.0861 65.897 65.9423 66.3449C65.7986 66.7929 65.5278 67.1489 65.1298 67.4131C64.7318 67.6772 64.179 67.861 63.4715 67.9644C62.7639 68.0562 61.8463 68.1022 60.7186 68.1022H60.0139Z" fill="white"/><path d="M71.0739 67.9374H68.2714V58.2209H71.0739V67.9374Z" fill="white"/><path d="M78.9721 68.1022C77.6786 68.1022 76.6339 68.0505 75.8379 67.9471C75.0419 67.8438 74.4228 67.6255 73.9806 67.2925C73.5494 66.9479 73.262 66.4598 73.1182 65.8281C72.9745 65.1849 72.9027 64.3293 72.9027 63.2612V62.9855C72.9027 61.9289 72.969 61.0847 73.1017 60.4531C73.2454 59.8099 73.5328 59.3218 73.964 58.9887C74.3951 58.6441 75.0087 58.4202 75.8047 58.3168C76.6007 58.202 77.6565 58.1445 78.9721 58.1445H79.6768C80.8266 58.1445 81.7497 58.1905 82.4462 58.2823C83.1537 58.3742 83.6954 58.5408 84.0713 58.782C84.4472 59.0231 84.696 59.3562 84.8176 59.7812C84.9392 60.1946 85 60.7287 85 61.3833V61.6245H82.2969C82.2969 61.3948 82.2748 61.1996 82.2306 61.0388C82.1864 60.878 82.0703 60.7459 81.8824 60.6426C81.7055 60.5392 81.4346 60.4645 81.0698 60.4186C80.716 60.3727 80.2185 60.3497 79.5773 60.3497H79.0716C78.2867 60.3497 77.6675 60.3727 77.2143 60.4186C76.7721 60.4645 76.4349 60.5794 76.2027 60.7632C75.9816 60.9354 75.8434 61.1996 75.7881 61.5556C75.7328 61.9117 75.7052 62.4055 75.7052 63.0372V63.2095C75.7052 63.8297 75.7328 64.3178 75.7881 64.6739C75.8434 65.0184 75.9816 65.2768 76.2027 65.4491C76.4349 65.6214 76.7721 65.7305 77.2143 65.7764C77.6675 65.8224 78.2867 65.8453 79.0716 65.8453H79.4778C80.1411 65.8453 80.6607 65.8281 81.0366 65.7937C81.4125 65.7477 81.6944 65.6731 81.8824 65.5697C82.1513 65.4218 82.3135 65.0953 82.3135 64.7861L82.3133 64.5601H85V64.8461C85 65.4663 84.9392 65.9889 84.8176 66.4139C84.696 66.8273 84.4417 67.1604 84.0547 67.4131C83.6678 67.6657 83.1151 67.8438 82.3964 67.9471C81.6889 68.0505 80.7492 68.1022 79.5773 68.1022H78.9721Z" fill="white"/><path d="M28.7685 79.9947C27.8706 79.9947 27.1523 79.9595 26.6136 79.889C26.0748 79.8108 25.6596 79.6542 25.3677 79.4193C25.0834 79.1844 24.8963 78.8517 24.8066 78.4211C24.7168 77.9827 24.6719 77.4073 24.6719 76.6948V76.5069C24.6719 76.0294 24.6906 75.6144 24.728 75.2621C24.7654 74.9098 24.8365 74.6123 24.9412 74.3696C25.0535 74.1269 25.2031 73.9312 25.3902 73.7825C25.5773 73.6259 25.8204 73.5045 26.1197 73.4184C26.4265 73.3323 26.7969 73.2775 27.2309 73.254C27.6649 73.2227 28.1774 73.207 28.7685 73.207H29.2455C29.9937 73.207 30.5998 73.2344 31.0637 73.2892C31.5351 73.344 31.9018 73.4497 32.1637 73.6063C32.433 73.7551 32.6163 73.9704 32.7136 74.2522C32.8109 74.5262 32.8595 74.8824 32.8595 75.3208V75.3782H31.0301C31.0301 75.1532 30.8928 74.9558 30.6933 74.8746C30.5587 74.812 30.3679 74.7689 30.1209 74.7454C29.8815 74.7141 29.5672 74.6984 29.1781 74.6984H28.8359C28.2971 74.6984 27.8744 74.7141 27.5676 74.7454C27.2608 74.7767 27.0326 74.855 26.8829 74.9803C26.7333 75.1056 26.6398 75.2934 26.6024 75.544C26.5649 75.7867 26.5462 76.1194 26.5462 76.5422V76.6596C26.5462 77.0745 26.5649 77.4034 26.6024 77.6461C26.6398 77.8809 26.7333 78.061 26.8829 78.1863C27.0326 78.3115 27.2608 78.3898 27.5676 78.4211C27.8744 78.4524 28.2971 78.4681 28.8359 78.4681H29.1781C29.6121 78.4681 29.9563 78.4563 30.2107 78.4329C30.4726 78.4094 30.6709 78.3663 30.8056 78.3037C30.9403 78.2332 31.0263 78.1432 31.0637 78.0336C31.1011 77.924 31.1198 77.7791 31.1198 77.5991V77.4229H29.5805L29.5918 76.1311H32.9269V77.6108C32.9269 78.0962 32.8782 78.4916 32.781 78.7969C32.6837 79.1022 32.5004 79.3449 32.231 79.525C31.9616 79.7051 31.5875 79.8303 31.1086 79.9008C30.6297 79.9634 30.0087 79.9947 29.2455 79.9947H28.7685Z" fill="white"/><path d="M40.5531 76.626C40.8749 76.626 41.133 76.6182 41.3276 76.6025C41.5221 76.5791 41.6681 76.536 41.7653 76.4734C41.8701 76.4107 41.9374 76.3207 41.9674 76.2033C41.9973 76.0858 42.0123 75.9332 42.0123 75.7453V75.6278C42.0123 75.4399 41.9973 75.2912 41.9674 75.1816C41.9374 75.0641 41.8701 74.9741 41.7653 74.9114C41.6681 74.841 41.5221 74.7979 41.3276 74.7823C41.133 74.7588 40.8749 74.747 40.5531 74.747H37.8093V76.626H40.5531ZM43.9091 79.9143H42.0459V79.3741C42.0459 79.0844 42.0235 78.8534 41.9786 78.6812C41.9412 78.5089 41.8551 78.3798 41.7204 78.2936C41.5857 78.1997 41.3875 78.141 41.1256 78.1175C40.8712 78.0862 40.527 78.0705 40.093 78.0705H37.8093V79.9143H35.9461V73.2908H41.3051C41.8289 73.2908 42.2592 73.326 42.5959 73.3965C42.9326 73.4591 43.1983 73.5687 43.3928 73.7253C43.5874 73.8819 43.722 74.0894 43.7969 74.3478C43.8717 74.5983 43.9091 74.9154 43.9091 75.299V75.5339C43.9091 76.0506 43.8231 76.446 43.651 76.72C43.4863 76.994 43.202 77.1819 42.7979 77.2837V77.3189C43.0224 77.3581 43.2057 77.4089 43.3479 77.4716C43.4976 77.5264 43.6135 77.6125 43.6959 77.7299C43.7782 77.8474 43.8343 78.0001 43.8642 78.188C43.8941 78.3758 43.9091 78.6146 43.9091 78.9043V79.9143Z" fill="white"/><path d="M50.5679 79.9964C49.9618 79.9964 49.6371 79.9808 49.1956 79.9494C48.7616 79.926 48.3912 79.8751 48.0844 79.7968C47.7776 79.7107 47.527 79.5932 47.3324 79.4445C47.1454 79.2957 46.9994 79.1 46.8947 78.8573C46.7899 78.6146 46.7188 78.3171 46.6814 77.9648C46.644 77.6124 46.6253 77.1897 46.6253 76.6964V76.5085C46.6253 76.0153 46.644 75.5925 46.6814 75.2402C46.7188 74.8879 46.7899 74.5904 46.8947 74.3477C46.9994 74.0972 47.1454 73.8975 47.3324 73.7488C47.527 73.6 47.7776 73.4865 48.0844 73.4082C48.3912 73.3299 48.7616 73.279 49.1956 73.2555C49.6371 73.2242 49.9618 73.2086 50.5679 73.2086H50.8598C51.4658 73.2086 51.7869 73.2242 52.2208 73.2555C52.6623 73.279 53.0365 73.3299 53.3432 73.4082C53.65 73.4865 53.897 73.6 54.084 73.7488C54.2786 73.8975 54.4282 74.0972 54.533 74.3477C54.6377 74.5904 54.7088 74.8879 54.7462 75.2402C54.7837 75.5925 54.8024 76.0153 54.8024 76.5085V76.6964C54.8024 77.1897 54.7837 77.6124 54.7462 77.9648C54.7088 78.3171 54.6377 78.6185 54.533 78.869C54.4282 79.1117 54.2786 79.3075 54.084 79.4562C53.897 79.605 53.65 79.7185 53.3432 79.7968C53.0365 79.8751 52.6623 79.926 52.2208 79.9494C51.7869 79.9808 51.4658 79.9964 50.8598 79.9964H50.5679ZM50.7924 78.458C51.3386 78.458 51.5661 78.4423 51.8729 78.411C52.1872 78.3797 52.4191 78.3053 52.5688 78.1879C52.7259 78.0626 52.8195 77.8786 52.8494 77.6359C52.8868 77.3932 52.9055 77.0644 52.9055 76.6495V76.5438C52.9055 76.121 52.8868 75.7883 52.8494 75.5456C52.8195 75.295 52.7259 75.111 52.5688 74.9936C52.4191 74.8683 52.1872 74.79 51.8729 74.7587C51.5661 74.7274 51.3386 74.7117 50.7924 74.7117H50.6353C50.0816 74.7117 49.8503 74.7274 49.5435 74.7587C49.2368 74.79 49.0048 74.8683 48.8477 74.9936C48.698 75.111 48.6045 75.295 48.5671 75.5456C48.5371 75.7883 48.5222 76.121 48.5222 76.5438V76.6495C48.5222 77.0644 48.5371 77.3932 48.5671 77.6359C48.6045 77.8786 48.698 78.0626 48.8477 78.1879C49.0048 78.3053 49.2368 78.3797 49.5435 78.411C49.8503 78.4423 50.0816 78.458 50.6353 78.458H50.7924Z" fill="white"/><path d="M61.5206 79.9964C60.7424 79.9964 60.1026 79.9651 59.6013 79.9024C59.1074 79.832 58.7183 79.7067 58.434 79.5266C58.1497 79.3387 57.9514 79.0882 57.8391 78.775C57.7344 78.4619 57.682 78.0587 57.682 77.5654V73.2907H59.5676V76.9313C59.5676 77.2679 59.5863 77.538 59.6237 77.7416C59.6686 77.9451 59.7584 78.1017 59.8931 78.2113C60.0278 78.3131 60.2224 78.3797 60.4768 78.411C60.7387 78.4423 61.0903 78.4579 61.5318 78.4579H61.888C62.3295 78.4579 62.6812 78.4423 62.943 78.411C63.2049 78.3718 63.4032 78.3014 63.5379 78.1996C63.6726 78.09 63.7587 77.9373 63.7961 77.7416C63.8335 77.538 63.8522 77.2679 63.8522 76.9313V73.2907H65.7378V77.5654C65.7378 78.0587 65.6854 78.4619 65.5807 78.775C65.4759 79.0882 65.2814 79.3387 64.997 79.5266C64.7202 79.7067 64.3311 79.832 63.8297 79.9024C63.3359 79.9651 62.6961 79.9964 61.9104 79.9964H61.5206Z" fill="white"/><path d="M73.3438 76.72C73.6955 76.72 73.9723 76.7082 74.1744 76.6847C74.3764 76.6613 74.5298 76.6182 74.6345 76.5556C74.7393 76.4851 74.8029 76.3912 74.8254 76.2737C74.8553 76.1485 74.8703 75.984 74.8703 75.7805V75.6983C74.8703 75.4947 74.8553 75.3303 74.8254 75.205C74.8029 75.0798 74.7393 74.9858 74.6345 74.9232C74.5298 74.8527 74.3764 74.8058 74.1744 74.7823C73.9723 74.7588 73.6955 74.747 73.3438 74.747H70.5692V76.72H73.3438ZM70.5692 79.9143H68.7061V73.2908H73.6693C74.2904 73.2908 74.7992 73.3221 75.1958 73.3848C75.5923 73.4474 75.9029 73.5648 76.1273 73.7371C76.3518 73.9015 76.5052 74.1403 76.5875 74.4534C76.6773 74.7588 76.7222 75.1581 76.7222 75.6513V75.8275C76.7222 76.3207 76.6773 76.7239 76.5875 77.0371C76.5052 77.3424 76.3518 77.5812 76.1273 77.7534C75.9029 77.9257 75.5923 78.0431 75.1958 78.1057C74.7992 78.1684 74.2904 78.1997 73.6693 78.1997H70.5692V79.9143Z" fill="white"/></svg>